<svg xmlns="http://www.w3.org/2000/svg" viewBox="0 0 769 768"><path d="M384.5,764A380.1,380.1,0,0,1,236.59,33.86,380.1,380.1,0,0,1,532.41,734.14,377.7,377.7,0,0,1,384.5,764Z"/><path d="M384.5,4.5A379.6,379.6,0,0,1,532.22,733.68,379.6,379.6,0,0,1,236.78,34.32,377.13,377.13,0,0,1,384.5,4.5m0-1C174.36,3.5,4,173.86,4,384S174.36,764.5,384.5,764.5,765,594.14,765,384,594.64,3.5,384.5,3.5Z" fill="#fff"/><path d="M493.57,205.43q49.19,26.52,75.69,73.64t26.51,107.2q0,59.51-26.51,107.21t-75.69,75.11Q444.39,596,379,596H205.23v-417H379Q444.39,178.93,493.57,205.43ZM437.32,455.19q25.9-24.15,25.91-68.92t-25.91-68.91q-25.93-24.15-70.1-24.16H336V479.34h31.22Q411.4,479.34,437.32,455.19Z" fill="#fff"/></svg>