<svg xmlns="http://www.w3.org/2000/svg" width="40" height="40" viewBox="0 0 40 40"><g transform="translate(-1074 -619)"><circle cx="20" cy="20" r="20" transform="translate(1074 619)" fill="#000"/><path d="M16.632,1.358a4.643,4.643,0,0,0-6.562,0l-2.2,2.2a5.73,5.73,0,0,1,2.785.223q.243.082.475.185l.773-.773A2.047,2.047,0,0,1,14.8,6.086L13.212,7.672l-2.58,2.581A2.047,2.047,0,0,1,7.312,9.63a1.952,1.952,0,0,1-.077-.205l-1.92,1.932A4.766,4.766,0,0,0,7.763,13.22q.185.061.376.1a4.72,4.72,0,0,0,4.219-1.135c.036-.034,4.273-4.27,4.273-4.27a4.645,4.645,0,0,0,0-6.562ZM7.35,14.193q-.243-.082-.475-.185l-.773.774a2.047,2.047,0,0,1-2.895-2.895l4.37-4.325a1.194,1.194,0,0,1,.316-.219A2.081,2.081,0,0,1,9.6,7.277a2.059,2.059,0,0,1,1.183,1.315l0,.015,1.941-1.941c.051-.052-.561-.709-.624-.771a4.749,4.749,0,0,0-.811-.644,4.622,4.622,0,0,0-5.754.636L1.374,10.054a4.638,4.638,0,0,0,3.264,7.919,4.693,4.693,0,0,0,3.3-1.357l2.2-2.2a5.738,5.738,0,0,1-2.785-.223Z" transform="translate(1084.997 630.745)" fill="#fff"/></g></svg>
